<svg width="390" height="140" viewBox="0 0 390 140" fill="none" xmlns="http://www.w3.org/2000/svg">
<path d="M32.2344 135.202C29.4437 135.202 26.7672 134.185 24.7939 132.375C22.8205 130.565 21.7119 128.11 21.7119 125.55C21.7119 122.99 22.8205 120.535 24.7939 118.725C26.7672 116.915 29.5 115.767 32.2344 115.767" stroke="#1F3E52"/>
<path d="M32 131.499C30.2983 131.499 29.1582 130.747 27.9549 129.608C26.7517 128.468 26.0757 126.922 26.0757 125.311C26.0757 123.699 26.7517 122.153 27.9549 121.013C29.1582 119.874 30.7902 119.233 32.4918 119.233" stroke="#1F3E52"/>
<path d="M31.5635 115.755H286.104" stroke="#1F3E52"/>
<path d="M31.5 131.499L287.121 131.827" stroke="#1F3E52"/>
<path d="M6.31417 109.462C6.31417 112.054 7.40927 114.539 9.35855 116.372C11.3078 118.204 13.9516 119.233 16.7084 119.233C19.4651 119.233 22.1089 118.204 24.0582 116.372C26.0074 114.539 27.5 112.59 27.5 109.999" stroke="#1F3E52"/>
<path d="M10.1637 109.225C10.1637 110.805 10.8667 112.32 12.1181 113.438C13.3695 114.555 15.0667 115.183 16.8365 115.183C18.6062 115.183 20.3035 114.555 21.5549 113.438C22.8063 112.32 23.5093 110.805 23.5093 109.225" stroke="#1F3E52"/>
<path d="M27.4902 110.082L27.4902 34.4455" stroke="#1F3E52"/>
<path d="M10.1816 109.499L10.1816 33.4992" stroke="#1F3E52"/>
<path fill-rule="evenodd" clip-rule="evenodd" d="M14.5033 127.726C14.0499 128.616 13.1723 129.689 12.0082 130.695C11.1454 131.441 8.2668 132.833 6.75212 132.79C6.81367 131.384 8.51432 128.817 9.37711 128.071C10.5849 127.027 11.8472 126.273 12.8557 125.933C7.91949 125 7.15241 122.487 7.5007 119.57C9.33736 121.549 12.4925 122.432 15.5005 122.554C16.7382 122.605 17.9312 122.451 19.0427 122.126C18.4974 123.245 18.1778 124.484 18.1385 125.796C18.0582 128.48 18.685 131.372 20.5389 133.196C17.6207 132.937 15.0932 132.136 14.5033 127.726Z" stroke="#1F3E52"/>
<path d="M18.9025 108.867C18.9025 107.773 17.9893 106.864 16.836 106.864C15.6827 106.864 14.7695 107.773 14.7695 108.867C14.7695 109.961 15.6827 110.869 16.836 110.869C17.9893 110.869 18.9025 109.961 18.9025 108.867Z" stroke="#1F3E52"/>
<path d="M34.8154 125.311C34.8154 124.239 33.8682 123.309 32.6206 123.309C31.3729 123.309 30.4258 124.239 30.4258 125.311C30.4258 126.383 31.3729 127.313 32.6206 127.313C33.8682 127.313 34.8154 126.383 34.8154 125.311Z" stroke="#1F3E52"/>
<path d="M356.886 135.198C359.677 135.198 362.353 134.181 364.327 132.371C366.3 130.561 367.409 128.106 367.409 125.546C367.409 122.986 366.3 120.531 364.327 118.721C362.353 116.911 359.621 115.763 356.886 115.763" stroke="#1F3E52"/>
<path d="M357.121 131.495C358.822 131.495 359.962 130.744 361.166 129.604C362.369 128.464 363.045 126.918 363.045 125.307C363.045 123.695 362.369 122.149 361.166 121.009C359.962 119.87 358.33 119.229 356.629 119.229" stroke="#1F3E52"/>
<path d="M357.557 115.751H103.017" stroke="#1F3E52"/>
<path d="M357.621 131.495L102 131.823" stroke="#1F3E52"/>
<path d="M382.806 109.458C382.806 112.05 381.711 114.535 379.762 116.368C377.813 118.2 375.169 119.229 372.412 119.229C369.656 119.229 367.012 118.2 365.062 116.368C363.113 114.535 361.621 112.587 361.621 109.995" stroke="#1F3E52"/>
<path d="M378.957 109.221C378.957 110.801 378.254 112.316 377.003 113.434C375.751 114.551 374.054 115.179 372.284 115.179C370.514 115.179 368.817 114.551 367.566 113.434C366.314 112.316 365.611 110.801 365.611 109.221" stroke="#1F3E52"/>
<path d="M361.63 110.078V34.4416" stroke="#1F3E52"/>
<path d="M378.939 109.495L378.939 33.4953" stroke="#1F3E52"/>
<path fill-rule="evenodd" clip-rule="evenodd" d="M374.617 127.722C375.071 128.613 375.948 129.685 377.112 130.691C377.975 131.437 380.854 132.829 382.368 132.786C382.307 131.38 380.606 128.813 379.743 128.067C378.536 127.023 377.273 126.269 376.265 125.929C381.201 124.996 381.968 122.484 381.62 119.566C379.783 121.545 376.628 122.428 373.62 122.55C372.382 122.601 371.189 122.447 370.078 122.122C370.623 123.241 370.943 124.48 370.982 125.792C371.062 128.476 370.436 131.368 368.582 133.192C371.5 132.933 374.027 132.132 374.617 127.722Z" stroke="#1F3E52"/>
<path d="M370.218 108.863C370.218 107.769 371.131 106.861 372.285 106.861C373.438 106.861 374.351 107.769 374.351 108.863C374.351 109.957 373.438 110.865 372.285 110.865C371.131 110.865 370.218 109.957 370.218 108.863Z" stroke="#1F3E52"/>
<path d="M354.305 125.307C354.305 124.236 355.252 123.305 356.5 123.305C357.748 123.305 358.695 124.236 358.695 125.307C358.695 126.379 357.748 127.31 356.5 127.31C355.252 127.31 354.305 126.379 354.305 125.307Z" stroke="#1F3E52"/>
<path d="M356.886 4.68279C359.677 4.68279 362.353 5.69969 364.327 7.50979C366.3 9.31988 367.409 11.7749 367.409 14.3348C367.409 16.8946 366.3 19.3496 364.327 21.1597C362.353 22.9698 359.621 24.1182 356.886 24.1182" stroke="#1F3E52"/>
<path d="M357.121 8.38574C358.822 8.38574 359.962 9.13731 361.166 10.277C362.369 11.4167 363.045 12.9624 363.045 14.5742C363.045 16.186 362.369 17.7317 361.166 18.8714C359.962 20.0111 358.33 20.6514 356.629 20.6514" stroke="#1F3E52"/>
<path d="M357.557 24.1299H103.017" stroke="#1F3E52"/>
<path d="M357.621 8.38574L102 8.05762" stroke="#1F3E52"/>
<path d="M382.806 30.4225C382.806 27.831 381.711 25.3457 379.762 23.5133C377.813 21.6808 375.169 20.6514 372.412 20.6514C369.656 20.6514 367.012 21.6808 365.062 23.5133C363.113 25.3457 361.621 27.2943 361.621 29.8857" stroke="#1F3E52"/>
<path d="M378.957 30.6602C378.957 29.08 378.254 27.5646 377.003 26.4472C375.751 25.3299 374.054 24.7021 372.284 24.7021C370.514 24.7021 368.817 25.3299 367.566 26.4472C366.314 27.5645 365.611 29.08 365.611 30.6602" stroke="#1F3E52"/>
<path d="M361.63 29.8027V105.439" stroke="#1F3E52"/>
<path d="M378.939 30.3857L378.939 106.386" stroke="#1F3E52"/>
<path fill-rule="evenodd" clip-rule="evenodd" d="M374.617 12.1592C375.071 11.2683 375.948 10.1959 377.112 9.18958C377.975 8.4437 380.854 7.05181 382.368 7.0952C382.307 8.50123 380.606 11.0681 379.743 11.814C378.536 12.8581 377.273 13.6116 376.265 13.9515C381.201 14.8848 381.968 17.3973 381.62 20.3144C379.783 18.3361 376.628 17.4525 373.62 17.3304C372.382 17.2802 371.189 17.4335 370.078 17.7586C370.623 16.6396 370.943 15.4005 370.982 14.0887C371.062 11.4049 370.436 8.51275 368.582 6.68885C371.5 6.94769 374.027 7.74917 374.617 12.1592Z" stroke="#1F3E52"/>
<path d="M370.218 31.018C370.218 32.112 371.131 33.0203 372.285 33.0203C373.438 33.0203 374.351 32.112 374.351 31.018C374.351 29.924 373.438 29.0156 372.285 29.0156C371.131 29.0156 370.218 29.924 370.218 31.018Z" stroke="#1F3E52"/>
<path d="M354.305 14.5737C354.305 15.6453 355.252 16.576 356.5 16.576C357.748 16.576 358.695 15.6453 358.695 14.5737C358.695 13.502 357.748 12.5713 356.5 12.5713C355.252 12.5713 354.305 13.502 354.305 14.5737Z" stroke="#1F3E52"/>
<path d="M32.2344 4.68279C29.4437 4.68279 26.7672 5.69969 24.7939 7.50979C22.8205 9.31988 21.7119 11.7749 21.7119 14.3348C21.7119 16.8946 22.8205 19.3496 24.7939 21.1597C26.7672 22.9698 29.5 24.1182 32.2344 24.1182" stroke="#1F3E52"/>
<path d="M32 8.38574C30.2983 8.38574 29.1582 9.13731 27.9549 10.277C26.7517 11.4167 26.0757 12.9624 26.0757 14.5742C26.0757 16.186 26.7517 17.7317 27.9549 18.8714C29.1582 20.0111 30.7902 20.6514 32.4918 20.6514" stroke="#1F3E52"/>
<path d="M31.5635 24.1299H286.104" stroke="#1F3E52"/>
<path d="M31.5 8.38574L287.121 8.05762" stroke="#1F3E52"/>
<path d="M6.31417 30.4225C6.31417 27.831 7.40927 25.3457 9.35855 23.5133C11.3078 21.6808 13.9516 20.6514 16.7084 20.6514C19.4651 20.6514 22.1089 21.6808 24.0582 23.5133C26.0074 25.3457 27.5 27.2943 27.5 29.8857" stroke="#1F3E52"/>
<path d="M10.1637 30.6602C10.1637 29.08 10.8667 27.5646 12.1181 26.4472C13.3695 25.3299 15.0667 24.7021 16.8365 24.7021C18.6062 24.7021 20.3035 25.3299 21.5549 26.4472C22.8063 27.5645 23.5093 29.08 23.5093 30.6602" stroke="#1F3E52"/>
<path d="M27.4902 29.8027L27.4902 105.439" stroke="#1F3E52"/>
<path d="M10.1816 30.3857L10.1816 106.386" stroke="#1F3E52"/>
<path fill-rule="evenodd" clip-rule="evenodd" d="M14.5033 12.1592C14.0499 11.2683 13.1723 10.1959 12.0082 9.18958C11.1454 8.4437 8.2668 7.05181 6.75212 7.0952C6.81367 8.50123 8.51432 11.0681 9.37711 11.814C10.5849 12.8581 11.8472 13.6116 12.8557 13.9515C7.91949 14.8848 7.15241 17.3973 7.5007 20.3144C9.33736 18.3361 12.4925 17.4525 15.5005 17.3304C16.7382 17.2802 17.9312 17.4335 19.0427 17.7586C18.4974 16.6396 18.1778 15.4005 18.1385 14.0887C18.0582 11.4049 18.685 8.51275 20.5389 6.68885C17.6207 6.94769 15.0932 7.74917 14.5033 12.1592Z" stroke="#1F3E52"/>
<path d="M18.9025 31.018C18.9025 32.112 17.9893 33.0203 16.836 33.0203C15.6827 33.0203 14.7695 32.112 14.7695 31.018C14.7695 29.924 15.6827 29.0156 16.836 29.0156C17.9893 29.0156 18.9025 29.924 18.9025 31.018Z" stroke="#1F3E52"/>
<path d="M34.8154 14.5737C34.8154 15.6453 33.8682 16.576 32.6206 16.576C31.3729 16.576 30.4258 15.6453 30.4258 14.5737C30.4258 13.502 31.3729 12.5713 32.6206 12.5713C33.8682 12.5713 34.8154 13.502 34.8154 14.5737Z" stroke="#1F3E52"/>
</svg>
