<svg width="265" height="31" viewBox="0 0 265 31" fill="none" xmlns="http://www.w3.org/2000/svg">
<path d="M0 30.4348V0H7.47279L18.9168 19.1304H19.173V0H25.7064V30.4348H18.1909L6.78956 11.3043H6.53335V30.4348H0Z" fill="#EFF4FF"/>
<path d="M46.8964 31C39.5517 31 34.7264 26.087 34.7264 18.8696V0H41.516V18.8261C41.516 22.3478 43.3522 24.5217 46.8964 24.5217C50.4406 24.5217 52.2768 22.3478 52.2768 18.7826V0H59.0664V18.8261C59.0664 26.087 54.1984 31 46.8964 31Z" fill="#EFF4FF"/>
<path d="M74.6241 30.4348V5.95652H66.2973V0H89.7832V5.95652H81.4137V30.4348H74.6241Z" fill="#EFF4FF"/>
<path d="M97.278 30.4348V0H108.978C115.085 0 119.568 4.08696 119.568 10.0435C119.568 14.1304 117.305 17.3478 114.273 18.913L120.636 30.4348H113.12L108.039 20.2609H104.025V30.4348H97.278ZM104.025 14.3913H108.38C110.814 14.3913 112.651 12.8696 112.651 10.0435C112.651 7.52174 110.943 5.86957 108.295 5.86957H104.025V14.3913Z" fill="#EFF4FF"/>
<path d="M128.342 30.4348V0H135.089V30.4348H128.342Z" fill="#EFF4FF"/>
<path d="M146.144 30.4348V0H156.392C161.773 0 165.488 3.52174 165.488 9.04348C165.488 14.3913 161.645 18.1304 156.392 18.1304H148.749V30.4348H146.144ZM148.749 15.7391H156.179C160.15 15.7391 162.798 12.913 162.798 9.04348C162.798 5.08696 160.15 2.3913 156.179 2.3913H148.749V15.7391Z" fill="#EFF4FF"/>
<path d="M178.654 30.4348V0H181.259V28H194.325V30.4348H178.654Z" fill="#EFF4FF"/>
<path d="M204.199 30.4348L215.899 0H219.059L230.717 30.4348H227.941L225.038 22.7826H209.879L206.932 30.4348H204.199ZM210.818 20.3043H224.098L217.565 3.08696H217.309L210.818 20.3043Z" fill="#EFF4FF"/>
<path d="M242.923 30.4348V0H245.742L262.139 25.8696H262.395V0H265V30.4348H262.096L245.784 4.56522H245.528V30.4348H242.923Z" fill="#EFF4FF"/>
</svg>
