<svg width="28" height="28" viewBox="0 0 28 28" fill="currentColor" xmlns="http://www.w3.org/2000/svg">
<g clip-path="url(#clip0_650_473)">
<path d="M1.25781 16.625C9.66766 16.625 18.0775 16.625 26.7422 16.625C26.7049 16.8488 26.6744 17.0109 26.5977 17.2154C26.5794 17.2645 26.5612 17.3136 26.5424 17.3641C26.5128 17.4421 26.5128 17.4421 26.4826 17.5216C26.4623 17.5756 26.442 17.6296 26.4211 17.6853C26.3783 17.799 26.3353 17.9127 26.2922 18.0263C26.226 18.2008 26.1606 18.3757 26.0952 18.5505C26.0535 18.661 26.0117 18.7715 25.9699 18.8819C25.9503 18.9344 25.9307 18.987 25.9105 19.0411C25.8921 19.0893 25.8737 19.1375 25.8547 19.1872C25.8386 19.2298 25.8225 19.2724 25.8059 19.3163C25.7578 19.4141 25.7578 19.4141 25.6484 19.4688C25.5346 19.4071 25.4265 19.3425 25.3169 19.2739C25.0225 19.0978 24.7281 18.96 24.4043 18.8467C24.3492 18.8272 24.3492 18.8272 24.293 18.8073C23.2839 18.4674 22.1147 18.4605 21.1094 18.8125C21.0438 18.8351 20.9783 18.8576 20.9107 18.8809C20.5339 19.0217 20.1816 19.1932 19.8279 19.3831C19.2474 19.6914 18.6605 19.9864 18.0725 20.2798C17.8974 20.3672 17.7224 20.4549 17.5474 20.5425C17.4316 20.6004 17.3159 20.6583 17.2001 20.7161C17.125 20.7537 17.125 20.7537 17.0484 20.7921C16.7333 20.9491 16.4166 21.1022 16.0988 21.2534C15.3279 21.6202 14.563 21.9987 13.7992 22.3801C13.6912 22.434 13.5832 22.4879 13.4751 22.5418C13.135 22.7115 12.795 22.8812 12.455 23.0511C12.066 23.2455 11.6768 23.4396 11.2875 23.6335C10.9836 23.7849 10.6798 23.9365 10.376 24.0883C10.1958 24.1784 10.0155 24.2684 9.83513 24.3581C9.63468 24.4578 9.43448 24.558 9.23431 24.6583C9.17567 24.6873 9.11703 24.7164 9.05661 24.7463C8.29702 25.1282 7.62849 25.5879 7.31787 26.4136C7.22618 26.7531 7.19699 27.1039 7.16406 27.4531C5.99619 27.1014 4.98111 25.9662 4.39034 24.9379C3.99009 24.1736 3.70887 23.3579 3.41068 22.5501C3.33058 22.3334 3.24995 22.1169 3.16935 21.9004C3.06969 21.6326 2.97008 21.3648 2.8707 21.0969C2.65845 20.5249 2.44453 19.9535 2.22902 19.3827C2.18228 19.2589 2.13559 19.1351 2.0889 19.0113C1.9119 18.5419 1.9119 18.5419 1.73446 18.0726C1.65369 17.8593 1.57333 17.6458 1.49301 17.4323C1.45698 17.3375 1.45698 17.3375 1.42022 17.2407C1.38787 17.1545 1.38787 17.1545 1.35486 17.0665C1.336 17.0166 1.31714 16.9666 1.2977 16.9152C1.25781 16.7891 1.25781 16.7891 1.25781 16.625Z" fill="currentColor"/>
<path d="M24.893 20.8296C25.2936 21.145 25.6014 21.4954 25.8671 21.9301C26.1205 21.719 26.3533 21.5005 26.5785 21.2594C26.7927 21.0728 27.0081 21.033 27.2896 21.0415C27.5374 21.0726 27.6889 21.1775 27.8529 21.3593C27.9853 21.5505 28.011 21.6578 28.017 21.8891C28.0191 21.9402 28.0211 21.9912 28.0232 22.0438C27.9768 22.362 27.7422 22.5842 27.5206 22.803C27.4476 22.8754 27.4476 22.8754 27.3732 22.9493C27.3228 22.9988 27.2725 23.0482 27.2206 23.0991C27.1439 23.1751 27.1439 23.1751 27.0655 23.2527C26.9397 23.3772 26.8137 23.5014 26.6874 23.6255C26.9675 23.9624 27.2717 24.2668 27.5859 24.5717C27.6236 24.6087 27.6612 24.6458 27.7 24.684C27.734 24.717 27.768 24.7501 27.803 24.7842C28.0229 25.033 28.0294 25.2726 28.0247 25.5948C27.9868 25.8449 27.8696 25.9896 27.6718 26.1411C27.4258 26.2906 27.1862 26.2835 26.9062 26.2505C26.5638 26.116 26.3451 25.8654 26.0933 25.6021C25.9868 25.4827 25.9868 25.4827 25.8671 25.4301C25.862 25.4689 25.8568 25.5077 25.8515 25.5476C25.647 26.3633 24.8015 27.0359 24.1171 27.4536C23.2063 27.9969 22.3027 28.0327 21.2718 28.0288C21.1413 28.0291 21.0108 28.0294 20.8803 28.0299C20.5283 28.0309 20.1764 28.0305 19.8245 28.0298C19.6044 28.0294 19.3844 28.0295 19.1644 28.0297C19.1277 28.0298 19.091 28.0298 19.0532 28.0298C18.9787 28.0299 18.9042 28.03 18.8297 28.03C18.1336 28.0307 17.4376 28.0299 16.7415 28.0288C16.1447 28.0278 15.548 28.028 14.9512 28.029C14.2565 28.0301 13.5619 28.0306 12.8673 28.0299C12.7932 28.0299 12.7192 28.0298 12.6451 28.0297C12.6087 28.0297 12.5723 28.0297 12.5347 28.0296C12.2784 28.0294 12.0221 28.0298 11.7658 28.0303C11.4212 28.0309 11.0765 28.0305 10.7319 28.0292C10.6054 28.0289 10.4789 28.029 10.3524 28.0295C10.1799 28.0301 10.0074 28.0293 9.83487 28.0282C9.78472 28.0287 9.73456 28.0292 9.68289 28.0297C9.38098 28.026 9.20865 27.9824 8.96867 27.7817C8.75786 27.556 8.74253 27.316 8.74992 27.0161C8.8101 26.7318 8.95754 26.5826 9.18742 26.4145C9.27964 26.3614 9.37354 26.3112 9.46871 26.2636C9.52414 26.2357 9.57958 26.2078 9.63669 26.1791C9.6969 26.1492 9.75711 26.1193 9.81915 26.0885C9.91495 26.0404 9.91495 26.0404 10.0127 25.9914C10.1872 25.9039 10.3619 25.8168 10.5367 25.7298C10.7197 25.6386 10.9025 25.5471 11.0853 25.4556C11.392 25.3022 11.6989 25.1491 12.0058 24.9961C12.361 24.8191 12.7159 24.6417 13.0708 24.4641C13.4122 24.2933 13.7537 24.1227 14.0952 23.9522C14.2407 23.8796 14.386 23.807 14.5314 23.7343C14.7339 23.6329 14.9367 23.5319 15.1394 23.431C15.2 23.4007 15.2605 23.3703 15.3229 23.3391C15.3779 23.3118 15.4328 23.2845 15.4895 23.2564C15.5374 23.2324 15.5853 23.2085 15.6347 23.1839C15.7499 23.1333 15.7499 23.1333 15.8593 23.1333C15.8598 23.1812 15.8603 23.2292 15.8608 23.2787C15.8633 23.4579 15.8666 23.637 15.8706 23.8162C15.8722 23.8935 15.8733 23.9708 15.8741 24.0482C15.8753 24.1598 15.8779 24.2714 15.8807 24.383C15.8818 24.45 15.883 24.517 15.8841 24.586C15.9272 24.8568 16.0468 25.0304 16.2558 25.2046C16.4943 25.3021 16.709 25.311 16.9511 25.2302C17.1741 25.1208 17.258 25.0157 17.3552 24.7809C17.4218 24.5618 17.4169 24.3401 17.4185 24.1127C17.4195 24.0611 17.4205 24.0094 17.4215 23.9562C17.4245 23.7924 17.4263 23.6286 17.4281 23.4648C17.43 23.3533 17.4318 23.2417 17.4338 23.1302C17.4384 22.8578 17.4421 22.5854 17.4452 22.313C17.6092 22.2265 17.7732 22.14 17.9372 22.0536C18.006 22.0173 18.006 22.0173 18.0762 21.9803C19.2096 21.3833 19.2096 21.3833 19.3593 21.3833C19.3605 21.4528 19.3605 21.4528 19.3617 21.5236C19.3651 21.6967 19.3691 21.8698 19.3736 22.0428C19.3755 22.1175 19.377 22.1922 19.3782 22.2669C19.3801 22.3747 19.383 22.4825 19.386 22.5902C19.3874 22.655 19.3889 22.7197 19.3903 22.7864C19.4227 23.0364 19.4992 23.2258 19.6874 23.3964C19.9072 23.527 20.0925 23.5331 20.3437 23.5161C20.5994 23.4308 20.7165 23.322 20.8451 23.0856C20.9314 22.8648 20.9236 22.6398 20.9239 22.4055C20.9248 22.3526 20.9257 22.2997 20.9266 22.2452C20.9293 22.0775 20.9304 21.9099 20.9316 21.7422C20.9331 21.628 20.9347 21.5138 20.9365 21.3996C20.9405 21.1207 20.9432 20.8419 20.9452 20.563C21.0309 20.5193 21.1166 20.4758 21.2024 20.4324C21.2502 20.4082 21.2979 20.384 21.3471 20.359C22.5037 19.8047 23.8888 20.112 24.893 20.8296Z" fill="currentColor"/>
<path d="M1.21157 12.2428C1.27891 12.2426 1.27891 12.2426 1.3476 12.2425C1.49867 12.2422 1.64973 12.2423 1.80079 12.2425C1.90993 12.2424 2.01907 12.2422 2.12821 12.2421C2.42864 12.2418 2.72907 12.2418 3.0295 12.2418C3.3533 12.2418 3.67711 12.2415 4.00092 12.2413C4.63549 12.2408 5.27006 12.2407 5.90463 12.2407C6.42029 12.2406 6.93595 12.2405 7.4516 12.2403C7.59999 12.2403 7.74837 12.2402 7.89675 12.2402C7.93364 12.2402 7.97052 12.2402 8.00853 12.2402C9.0462 12.2398 10.0839 12.2396 11.1215 12.2396C11.1607 12.2396 11.1998 12.2396 11.2401 12.2396C11.4384 12.2396 11.6368 12.2396 11.8351 12.2396C11.8745 12.2396 11.9139 12.2396 11.9544 12.2396C12.0341 12.2397 12.1138 12.2397 12.1934 12.2397C13.4329 12.2397 14.6724 12.2393 15.9118 12.2385C17.3041 12.2377 18.6963 12.2372 20.0885 12.2373C20.2369 12.2373 20.3853 12.2373 20.5338 12.2373C20.5703 12.2373 20.6068 12.2373 20.6445 12.2373C21.1965 12.2373 21.7484 12.237 22.3004 12.2366C22.928 12.2361 23.5557 12.2359 24.1833 12.2363C24.5037 12.2365 24.824 12.2365 25.1444 12.236C25.4375 12.2356 25.7307 12.2357 26.0238 12.2361C26.13 12.2362 26.2361 12.2361 26.3423 12.2358C26.4864 12.2354 26.6305 12.2357 26.7747 12.2362C26.816 12.2359 26.8574 12.2356 26.9001 12.2354C27.2348 12.2376 27.5134 12.2692 27.771 12.4925C28.08 12.8545 28 12.8431 28 13.4529C27.8015 13.9763 27.603 14.4996 27.3984 15.0388C18.5555 15.0388 9.7125 15.0388 0.601562 15.0388C0 13.4529 0 13.4529 0 12.7967C0.117215 12.5492 0.244224 12.4194 0.492188 12.3045C0.730848 12.2416 0.966522 12.2421 1.21157 12.2428Z" fill="currentColor"/>
<path d="M7.73166 7.53151C8.14928 7.87706 8.47835 8.3217 8.58594 8.85961C8.66207 8.86468 8.66207 8.86468 8.73975 8.86986C9.54752 8.98736 10.2894 9.61654 10.763 10.2497C10.9375 10.5211 10.9375 10.5211 10.9375 10.6643C7.7432 10.6643 4.54891 10.6643 1.25781 10.6643C1.56838 9.88787 2.16745 9.38878 2.90805 9.03414C3.15155 8.93142 3.34295 8.85961 3.60938 8.85961C3.61741 8.82979 3.62545 8.79997 3.63373 8.76925C3.81964 8.1442 4.19435 7.67791 4.75397 7.34139C5.73094 6.82805 6.82465 6.87769 7.73166 7.53151Z" fill="currentColor"/>
<path d="M25.1469 8.976C25.2056 9.02633 25.2056 9.02633 25.2656 9.07768C25.3093 9.11349 25.353 9.1493 25.3981 9.1862C25.846 9.56736 26.2414 10.0356 26.5234 10.5542C26.5234 10.5903 26.5234 10.6264 26.5234 10.6636C24.0691 10.6636 21.6147 10.6636 19.0859 10.6636C19.0318 10.5012 18.9777 10.3388 18.9219 10.1714C18.8777 10.0592 18.8323 9.94745 18.7852 9.83647C18.7618 9.78134 18.7385 9.72621 18.7144 9.66942C18.6927 9.61852 18.6709 9.56762 18.6484 9.51518C18.6306 9.47331 18.6128 9.43143 18.5944 9.38829C18.5579 9.3029 18.5212 9.21761 18.4844 9.13237C20.3094 7.51772 23.2452 7.40747 25.1469 8.976Z" fill="currentColor"/>
<path d="M9.02352 -9.17625e-05C9.24253 0.109414 9.38766 0.228501 9.5157 0.437408C9.57935 0.628351 9.57851 0.779828 9.58007 0.981359C9.58043 1.01979 9.58079 1.05823 9.58116 1.09783C9.58224 1.22497 9.58288 1.3521 9.58342 1.47925C9.58364 1.52273 9.58387 1.56622 9.5841 1.61102C9.58524 1.84117 9.58602 2.07132 9.58653 2.30147C9.58714 2.53888 9.58902 2.77626 9.59119 3.01366C9.59262 3.19649 9.59308 3.37932 9.59327 3.56216C9.59354 3.64965 9.59417 3.73715 9.59519 3.82464C9.59653 3.9473 9.59647 4.06988 9.59609 4.19254C9.59657 4.29709 9.59657 4.29709 9.59706 4.40374C9.55782 4.68315 9.42208 4.84732 9.23201 5.04825C9.01916 5.17596 8.83283 5.2054 8.58602 5.19522C8.26403 5.10399 8.11721 4.96766 7.92977 4.70303C7.86652 4.5133 7.86736 4.36432 7.86627 4.1641C7.86599 4.1262 7.86572 4.0883 7.86544 4.04925C7.86464 3.92388 7.86427 3.79852 7.86397 3.67316C7.86365 3.5859 7.86334 3.49864 7.86302 3.41138C7.86245 3.22836 7.86213 3.04535 7.86194 2.86234C7.86164 2.62824 7.86033 2.39417 7.85877 2.16008C7.85775 1.97978 7.85747 1.79948 7.85738 1.61918C7.85722 1.53291 7.85678 1.44663 7.85606 1.36036C7.85512 1.23941 7.85523 1.11851 7.85558 0.997568C7.85539 0.928842 7.85519 0.860116 7.85498 0.789308C7.88478 0.510805 7.97193 0.334001 8.17928 0.146881C8.45018 -0.0406643 8.70017 -0.0334315 9.02352 -9.17625e-05Z" fill="currentColor"/>
<path d="M19.5782 0.00041093C19.8616 0.129208 20.0032 0.320955 20.1251 0.601973C20.1525 0.795283 20.1525 0.795283 20.1525 1.00168C20.1528 1.03961 20.1531 1.07754 20.1534 1.11663C20.1541 1.24082 20.1532 1.36495 20.1522 1.48915C20.1522 1.5761 20.1523 1.66304 20.1524 1.74999C20.1525 1.93171 20.1518 2.1134 20.1506 2.29511C20.149 2.52749 20.1492 2.75982 20.1499 2.9922C20.1503 3.17156 20.1498 3.35092 20.1492 3.53028C20.1489 3.61594 20.1489 3.70161 20.1491 3.78727C20.1493 3.90715 20.1484 4.02698 20.1472 4.14685C20.1469 4.21491 20.1466 4.28298 20.1463 4.35311C20.114 4.63653 20.0111 4.8126 19.8209 5.02141C19.6014 5.19052 19.3564 5.21028 19.086 5.19572C18.7966 5.10288 18.6607 4.9402 18.4845 4.70354C18.4041 4.54291 18.4219 4.39981 18.421 4.22048C18.4207 4.18205 18.4204 4.14363 18.4201 4.10404C18.4193 3.9766 18.419 3.84916 18.4187 3.72172C18.4183 3.63316 18.418 3.5446 18.4177 3.45603C18.4171 3.27012 18.4168 3.0842 18.4166 2.89829C18.4163 2.66045 18.415 2.42264 18.4135 2.18481C18.4124 2.00174 18.4122 1.81867 18.4121 1.6356C18.4119 1.54796 18.4115 1.46031 18.4107 1.37266C18.4098 1.24975 18.4099 1.12687 18.4103 1.00396C18.4101 0.934096 18.4099 0.864234 18.4097 0.792255C18.4392 0.512324 18.5255 0.335476 18.734 0.147384C19.0055 -0.0405909 19.2543 -0.0316618 19.5782 0.00041093Z" fill="currentColor"/>
<path d="M14.3284 0.000190031C14.5799 0.119332 14.7 0.244649 14.8205 0.492378C14.8363 0.632707 14.8436 0.759629 14.8426 0.899743C14.843 0.939795 14.8434 0.979846 14.8438 1.02111C14.8448 1.15299 14.8446 1.28484 14.8443 1.41672C14.8445 1.50873 14.8448 1.60074 14.8451 1.69275C14.8456 1.88541 14.8455 2.07806 14.8449 2.27072C14.8443 2.51721 14.8454 2.76365 14.847 3.01012C14.848 3.20009 14.848 3.39004 14.8477 3.58001C14.8477 3.67087 14.848 3.76172 14.8487 3.85257C14.8495 3.9798 14.8489 4.10696 14.848 4.23419C14.8485 4.27144 14.849 4.3087 14.8496 4.34708C14.8454 4.61633 14.7677 4.76805 14.6018 4.97675C14.3941 5.14711 14.1786 5.21398 13.9114 5.1955C13.6296 5.14692 13.4284 5.03408 13.2544 4.80312C13.1626 4.61266 13.1565 4.44818 13.1578 4.24126C13.1574 4.20121 13.1571 4.16116 13.1567 4.11989C13.1557 3.98801 13.1559 3.85617 13.1562 3.72428C13.156 3.63227 13.1557 3.54027 13.1553 3.44826C13.1548 3.2556 13.155 3.06295 13.1555 2.87028C13.1562 2.6238 13.155 2.37736 13.1535 2.13088C13.1524 1.94092 13.1525 1.75096 13.1528 1.56099C13.1528 1.47014 13.1525 1.37928 13.1518 1.28843C13.151 1.1612 13.1515 1.03405 13.1525 0.90682C13.152 0.869565 13.1514 0.83231 13.1509 0.793927C13.155 0.524518 13.2318 0.372517 13.3987 0.164253C13.6843 -0.0575766 13.9813 -0.0421368 14.3284 0.000190031Z" fill="currentColor"/>
<path d="M13.1511 7.60355C13.6292 8.05613 13.968 8.60335 14.013 9.27071C14.0161 9.48242 14.0143 9.69343 14.0103 9.90513C14.0094 9.97904 14.0087 10.053 14.008 10.1269C14.0061 10.3059 14.0032 10.4849 14 10.6639C13.5488 10.6639 13.0977 10.6639 12.6328 10.6639C12.5787 10.5331 12.5245 10.4022 12.4688 10.2674C11.9332 9.02568 11.0352 8.1996 9.84375 7.60142C9.84375 7.56532 9.84375 7.52923 9.84375 7.49204C10.922 6.86875 12.1275 6.76084 13.1511 7.60355Z" fill="currentColor"/>
<path d="M15.5312 8.85938C16.1825 8.95242 16.6565 9.27155 17.0625 9.78906C17.4453 10.4048 17.4453 10.4048 17.4453 10.6641C16.8498 10.6641 16.2542 10.6641 15.6406 10.6641C15.6045 10.0685 15.5684 9.47297 15.5312 8.85938Z" fill="currentColor"/>
</g>
<defs>
<clipPath id="clip0_650_473">
<rect width="28" height="28" fill="currentColor"/>
</clipPath>
</defs>
</svg>
