<svg id="Layer_1" fill="#f43f5e" enable-background="new 0 0 512.06 512.061" viewBox="0 0 512.06 512.061" xmlns="http://www.w3.org/2000/svg"><path d="m506.935 117.86c-1.146-4.833-4.609-8.786-9.251-10.557-4.641-1.77-9.857-1.126-13.931 1.716l-13.549 9.458c-6.65-17.953-16.612-33.654-29.792-46.836-13.181-13.18-28.882-23.142-46.837-29.791l9.459-13.551c2.844-4.073 3.486-9.289 1.716-13.931s-5.723-8.105-10.557-9.251c-14.247-3.376-29.481-5.088-45.28-5.088-78.553 0-167.212 41.762-237.162 111.713-55.629 55.629-93.534 122.608-106.732 188.598-6.552 32.758-6.69 63.603-.411 91.677 6.655 29.757 20.216 55.031 40.306 75.122 29.366 29.366 70.244 44.889 118.215 44.892h.01c78.547 0 167.209-41.768 237.169-111.728 85.234-85.235 127.087-196.1 106.627-282.443zm-87.738-25.006c11.823 11.825 20.317 26.442 25.354 43.532l-228.178 159.294 159.293-228.177c17.091 5.035 31.709 13.529 43.531 25.351zm-40.101 286.236c-64.462 64.461-145.197 102.943-215.965 102.94-39.842-.002-73.385-12.487-97.003-36.104-32.045-32.046-43.3-81.66-31.691-139.702 12.049-60.246 47.041-121.78 98.528-173.268 64.447-64.448 145.176-102.926 215.948-102.926 5.38 0 10.669.229 15.847.687l-7.705 11.037c-.054.076-.108.152-.161.229l-213.418 305.706c-4.163 5.963-3.449 14.052 1.693 19.193 5.141 5.141 13.229 5.854 19.193 1.693l305.728-213.43c.065-.044.129-.089.193-.135l11.107-7.754c6.722 72.815-31.699 161.236-102.294 231.834z"></path></svg>
