<svg width="134" height="134" viewBox="0 0 134 134" fill="none" xmlns="http://www.w3.org/2000/svg">
<path d="M0 67C0 29.9969 29.9969 0 67 0C104.003 0 134 29.9969 134 67C134 104.003 104.003 134 67 134C29.9969 134 0 104.003 0 67Z" fill="url(#paint0_linear_405_379)"/>
<path d="M29.5986 74.705C54.2835 74.705 78.9684 74.705 104.401 74.705C104.292 75.362 104.202 75.8378 103.977 76.438C103.924 76.582 103.87 76.7261 103.815 76.8745C103.728 77.1032 103.728 77.1032 103.64 77.3367C103.58 77.4953 103.52 77.6538 103.459 77.8172C103.333 78.151 103.207 78.4847 103.08 78.8182C102.886 79.3305 102.694 79.8436 102.502 80.3568C102.38 80.6811 102.257 81.0054 102.135 81.3296C102.077 81.4838 102.02 81.6379 101.96 81.7968C101.906 81.9382 101.852 82.0798 101.796 82.2255C101.749 82.3506 101.702 82.4757 101.653 82.6045C101.512 82.8916 101.512 82.8916 101.191 83.0521C100.857 82.871 100.539 82.6816 100.218 82.4802C99.3538 81.9631 98.4896 81.5587 97.5391 81.2262C97.3774 81.1689 97.3774 81.1689 97.2124 81.1104C94.2505 80.1128 90.8187 80.0927 87.8677 81.1258C87.6753 81.1921 87.4828 81.2583 87.2846 81.3265C86.1786 81.7398 85.1444 82.2433 84.1061 82.8006C82.4024 83.7058 80.6798 84.5714 78.9536 85.4328C78.4397 85.6894 77.9261 85.9466 77.4125 86.2039C77.0727 86.3737 76.7328 86.5436 76.393 86.7133C76.1726 86.8238 76.1726 86.8238 75.9477 86.9365C75.023 87.3973 74.0934 87.8465 73.1604 88.2903C70.8976 89.3671 68.6526 90.4782 66.4107 91.5975C66.0936 91.7558 65.7765 91.914 65.4593 92.0723C64.4611 92.5703 63.4631 93.0685 62.4652 93.5672C61.3232 94.1378 60.1809 94.7075 59.0382 95.2766C58.146 95.7209 57.2543 96.1659 56.3628 96.6116C55.8338 96.876 55.3047 97.1401 54.7751 97.4034C54.1867 97.6961 53.5991 97.9902 53.0116 98.2845C52.8394 98.3698 52.6673 98.4552 52.49 98.5431C50.2604 99.664 48.2981 101.013 47.3864 103.437C47.1172 104.433 47.0316 105.463 46.9349 106.488C43.5069 105.456 40.5274 102.124 38.7934 99.1053C37.6185 96.862 36.7931 94.4677 35.9178 92.0966C35.6827 91.4605 35.446 90.825 35.2095 90.1895C34.917 89.4034 34.6245 88.6173 34.3328 87.831C33.7099 86.152 33.082 84.475 32.4494 82.7996C32.3122 82.4362 32.1751 82.0729 32.0381 81.7094C31.5186 80.3315 31.5186 80.3315 30.9977 78.954C30.7606 78.3278 30.5248 77.7012 30.289 77.0746C30.1832 76.7962 30.1832 76.7962 30.0753 76.5123C29.9804 76.2591 29.9804 76.2591 29.8835 76.0009C29.8281 75.8543 29.7728 75.7077 29.7157 75.5567C29.5986 75.1866 29.5986 75.1866 29.5986 74.705Z" fill="white"/>
<path d="M98.9737 87.045C100.15 87.9709 101.053 88.9994 101.833 90.2755C102.577 89.6557 103.26 89.0143 103.921 88.3066C104.55 87.7591 105.182 87.6422 106.008 87.6671C106.736 87.7585 107.18 88.0665 107.662 88.6001C108.05 89.1611 108.126 89.4762 108.144 90.1551C108.149 90.3049 108.156 90.4548 108.162 90.6091C108.026 91.543 107.337 92.1953 106.686 92.8376C106.472 93.0502 106.472 93.0502 106.254 93.2671C106.106 93.4122 105.958 93.5572 105.806 93.7066C105.581 93.9298 105.581 93.9298 105.351 94.1575C104.981 94.523 104.611 94.8876 104.241 95.2517C105.063 96.2406 105.956 97.1341 106.878 98.0291C106.989 98.1379 107.099 98.2466 107.213 98.3586C107.313 98.4557 107.413 98.5528 107.515 98.6528C108.161 99.3833 108.18 100.086 108.166 101.032C108.055 101.766 107.711 102.191 107.13 102.636C106.408 103.074 105.705 103.054 104.883 102.957C103.878 102.562 103.236 101.826 102.497 101.054C102.184 100.703 102.184 100.703 101.833 100.549C101.818 100.663 101.803 100.776 101.787 100.894C101.187 103.288 98.7051 105.262 96.6964 106.488C94.023 108.083 91.3706 108.188 88.3448 108.176C87.9617 108.177 87.5786 108.178 87.1955 108.18C86.1625 108.183 85.1295 108.182 84.0965 108.18C83.4506 108.178 82.8047 108.179 82.1588 108.179C82.0512 108.179 81.9436 108.179 81.8327 108.18C81.614 108.18 81.3953 108.18 81.1765 108.18C79.1334 108.182 77.0903 108.18 75.0472 108.176C73.2955 108.174 71.5439 108.174 69.7922 108.177C67.7533 108.18 65.7143 108.182 63.6754 108.18C63.4581 108.18 63.2407 108.179 63.0233 108.179C62.9164 108.179 62.8095 108.179 62.6993 108.179C61.947 108.178 61.1947 108.179 60.4424 108.181C59.4307 108.183 58.4192 108.181 57.4075 108.178C57.0362 108.177 56.6649 108.177 56.2936 108.179C55.7872 108.18 55.281 108.178 54.7746 108.175C54.6274 108.176 54.4802 108.178 54.3285 108.179C53.4423 108.168 52.9365 108.04 52.2321 107.451C51.6133 106.789 51.5683 106.084 51.59 105.204C51.7666 104.37 52.1994 103.932 52.8742 103.438C53.1449 103.282 53.4205 103.135 53.6998 102.995C53.8625 102.913 54.0252 102.832 54.1929 102.747C54.3696 102.659 54.5463 102.572 54.7284 102.481C55.0096 102.34 55.0096 102.34 55.2965 102.196C55.8088 101.939 56.3216 101.684 56.8346 101.428C57.3717 101.161 57.9082 100.892 58.4448 100.624C59.3452 100.173 60.2459 99.7239 61.1469 99.2749C62.1893 98.7554 63.2312 98.2347 64.2727 97.7134C65.2748 97.212 66.2772 96.7112 67.2798 96.2108C67.7066 95.9978 68.1333 95.7845 68.5599 95.571C69.1545 95.2736 69.7496 94.9772 70.3447 94.6809C70.5224 94.5919 70.7001 94.5028 70.8832 94.4111C71.0446 94.3309 71.2059 94.2508 71.3722 94.1683C71.5129 94.0981 71.6536 94.0279 71.7986 93.9556C72.1367 93.807 72.1367 93.807 72.4577 93.807C72.4592 93.9478 72.4607 94.0887 72.4623 94.2338C72.4693 94.7598 72.4793 95.2856 72.491 95.8115C72.4955 96.0385 72.4989 96.2655 72.5012 96.4925C72.5047 96.8202 72.5122 97.1476 72.5204 97.4751C72.5238 97.6718 72.5271 97.8685 72.5306 98.0712C72.6569 98.8659 73.0081 99.3756 73.6215 99.8867C74.3217 100.173 74.9519 100.199 75.6625 99.962C76.317 99.6409 76.5632 99.3324 76.8484 98.6431C77.044 98.0002 77.0297 97.3493 77.0344 96.6819C77.0373 96.5303 77.0402 96.3787 77.0432 96.2225C77.0518 95.7417 77.0573 95.261 77.0627 94.7801C77.068 94.4527 77.0735 94.1253 77.0793 93.7979C77.0929 92.9983 77.1036 92.1988 77.1128 91.3992C77.5941 91.1453 78.0755 90.8916 78.5569 90.6379C78.7588 90.5314 78.7588 90.5314 78.9648 90.4228C82.2916 88.6703 82.2916 88.6703 82.731 88.6703C82.7346 88.8743 82.7346 88.8743 82.7381 89.0824C82.748 89.5904 82.7599 90.0983 82.7732 90.6063C82.7785 90.8255 82.783 91.0447 82.7867 91.2639C82.7921 91.5803 82.8007 91.8967 82.8094 92.2131C82.8136 92.403 82.8178 92.593 82.8222 92.7888C82.9171 93.5226 83.1416 94.0787 83.6942 94.5795C84.3393 94.9626 84.883 94.9806 85.6204 94.9306C86.3711 94.6804 86.7148 94.361 87.0921 93.667C87.3454 93.019 87.3225 92.3585 87.3234 91.6707C87.3261 91.5155 87.3288 91.3603 87.3315 91.2004C87.3392 90.7082 87.3427 90.216 87.346 89.7237C87.3505 89.3886 87.3553 89.0534 87.3604 88.7183C87.3723 87.8997 87.3802 87.0812 87.3861 86.2625C87.6376 86.1343 87.8893 86.0067 88.1411 85.8794C88.2812 85.8083 88.4214 85.7372 88.5658 85.6639C91.9607 84.0368 96.0263 84.9389 98.9737 87.045Z" fill="white"/>
<path d="M29.4629 61.8427C29.6606 61.8423 29.6606 61.8423 29.8622 61.8418C30.3056 61.8411 30.749 61.8415 31.1924 61.8419C31.5128 61.8416 31.8331 61.8412 32.1535 61.8408C33.0353 61.8398 33.9171 61.8398 34.799 61.84C35.7494 61.84 36.6999 61.8391 37.6503 61.8384C39.5129 61.837 41.3755 61.8366 43.2382 61.8365C44.7517 61.8364 46.2653 61.8361 47.7789 61.8356C48.2144 61.8355 48.65 61.8353 49.0855 61.8352C49.1938 61.8351 49.302 61.8351 49.4136 61.8351C52.4594 61.8341 55.5052 61.8334 58.551 61.8335C58.6659 61.8335 58.7807 61.8335 58.8991 61.8335C59.4812 61.8335 60.0633 61.8336 60.6455 61.8336C60.7611 61.8336 60.8767 61.8336 60.9958 61.8336C61.2296 61.8336 61.4634 61.8336 61.6972 61.8336C65.3354 61.8337 68.9735 61.8325 72.6117 61.8303C76.6982 61.8278 80.7847 61.8265 84.8712 61.8266C85.3069 61.8266 85.7425 61.8266 86.1781 61.8266C86.2854 61.8266 86.3927 61.8266 86.5032 61.8266C88.1233 61.8266 89.7434 61.8258 91.3635 61.8245C93.2058 61.823 95.0481 61.8227 96.8905 61.8238C97.8308 61.8243 98.7711 61.8243 99.7114 61.8229C100.572 61.8216 101.432 61.8219 102.293 61.8233C102.604 61.8235 102.916 61.8232 103.228 61.8223C103.651 61.8212 104.074 61.822 104.497 61.8234C104.618 61.8226 104.74 61.8218 104.865 61.821C105.847 61.8276 106.665 61.9202 107.421 62.5756C108.328 63.6382 108.093 63.6048 108.093 65.3948C107.511 66.931 106.928 68.4672 106.328 70.0499C80.3714 70.0499 54.4152 70.0499 27.6724 70.0499C25.9067 65.3948 25.9067 65.3948 25.9067 63.4685C26.2507 62.7422 26.6235 62.3611 27.3514 62.0239C28.0519 61.8394 28.7436 61.8407 29.4629 61.8427Z" fill="white"/>
<path d="M48.6009 48.0128C49.8267 49.027 50.7927 50.3321 51.1084 51.911C51.3319 51.9259 51.3319 51.9259 51.5599 51.9411C53.9309 52.286 56.1085 54.1328 57.4985 55.9912C58.0108 56.7879 58.0108 56.7879 58.0108 57.2082C48.6348 57.2082 39.2588 57.2082 29.5986 57.2082C30.5103 54.9292 32.2686 53.4643 34.4425 52.4233C35.1572 52.1218 35.719 51.911 36.501 51.911C36.5246 51.8235 36.5482 51.736 36.5725 51.6458C37.1182 49.8111 38.2181 48.4425 39.8607 47.4547C42.7283 45.9479 45.9386 46.0936 48.6009 48.0128Z" fill="white"/>
<path d="M99.7187 52.2547C99.8912 52.4024 99.8912 52.4024 100.067 52.5531C100.196 52.6582 100.324 52.7634 100.456 52.8717C101.771 53.9905 102.932 55.3647 103.759 56.8872C103.759 56.9931 103.759 57.0991 103.759 57.2082C96.5551 57.2082 89.3509 57.2082 81.9284 57.2082C81.7695 56.7315 81.6106 56.2547 81.4469 55.7635C81.3173 55.4341 81.1841 55.1061 81.0456 54.7803C80.9771 54.6185 80.9086 54.4567 80.838 54.29C80.7741 54.1406 80.7101 53.9912 80.6443 53.8373C80.5919 53.7144 80.5396 53.5915 80.4856 53.4648C80.3786 53.2142 80.2708 52.9639 80.1627 52.7136C85.5197 47.9743 94.1368 47.6507 99.7187 52.2547Z" fill="white"/>
<path d="M52.3926 25.9067C53.0355 26.2281 53.4615 26.5776 53.8373 27.1908C54.0241 27.7513 54.0216 28.1959 54.0262 28.7875C54.0273 28.9003 54.0283 29.0131 54.0294 29.1293C54.0326 29.5025 54.0345 29.8757 54.0361 30.2489C54.0367 30.3765 54.0374 30.5042 54.038 30.6357C54.0414 31.3112 54.0437 31.9867 54.0452 32.6623C54.047 33.3592 54.0525 34.0559 54.0589 34.7527C54.0631 35.2894 54.0644 35.826 54.065 36.3627C54.0658 36.6195 54.0676 36.8764 54.0706 37.1332C54.0745 37.4932 54.0744 37.853 54.0733 38.213C54.0747 38.5199 54.0747 38.5199 54.0761 38.833C53.9609 39.6531 53.5625 40.135 53.0046 40.7247C52.3798 41.0996 51.8329 41.186 51.1084 41.1561C50.1633 40.8884 49.7324 40.4882 49.1822 39.7115C48.9966 39.1546 48.999 38.7173 48.9958 38.1296C48.995 38.0183 48.9942 37.9071 48.9934 37.7924C48.991 37.4245 48.9899 37.0565 48.9891 36.6885C48.9881 36.4324 48.9872 36.1763 48.9863 35.9201C48.9846 35.383 48.9837 34.8458 48.9831 34.3086C48.9822 33.6215 48.9784 32.9344 48.9738 32.2473C48.9708 31.7181 48.97 31.1888 48.9697 30.6596C48.9692 30.4064 48.968 30.1531 48.9658 29.8999C48.9631 29.5449 48.9634 29.19 48.9645 28.835C48.9639 28.6333 48.9633 28.4316 48.9627 28.2237C49.0501 27.4063 49.3059 26.8873 49.9146 26.3381C50.7097 25.7876 51.4435 25.8088 52.3926 25.9067Z" fill="white"/>
<path d="M83.3731 25.9067C84.2048 26.2847 84.6207 26.8475 84.9783 27.6724C85.0588 28.2398 85.0588 28.2398 85.0589 28.8456C85.0597 28.957 85.0606 29.0683 85.0615 29.183C85.0635 29.5476 85.0609 29.9119 85.058 30.2765C85.058 30.5317 85.0582 30.7869 85.0587 31.0421C85.0589 31.5755 85.0569 32.1088 85.0532 32.6422C85.0487 33.3242 85.0491 34.0062 85.0512 34.6883C85.0523 35.2148 85.051 35.7412 85.049 36.2677C85.0483 36.5191 85.0482 36.7706 85.0489 37.022C85.0493 37.3739 85.0467 37.7256 85.0432 38.0774C85.0423 38.2772 85.0415 38.477 85.0406 38.6829C84.9459 39.5148 84.6439 40.0316 84.0854 40.6445C83.4413 41.1409 82.7222 41.1989 81.9284 41.1561C81.0788 40.8836 80.68 40.4061 80.1627 39.7115C79.927 39.24 79.9791 38.82 79.9763 38.2936C79.9755 38.1808 79.9747 38.068 79.9739 37.9518C79.9716 37.5777 79.9705 37.2037 79.9696 36.8296C79.9687 36.5697 79.9677 36.3097 79.9668 36.0497C79.9651 35.504 79.9642 34.9583 79.9636 34.4126C79.9627 33.7145 79.9589 33.0165 79.9543 32.3184C79.9513 31.781 79.9505 31.2437 79.9502 30.7063C79.9498 30.4491 79.9485 30.1918 79.9464 29.9345C79.9436 29.5738 79.9439 29.2131 79.945 28.8523C79.9444 28.6473 79.9438 28.4422 79.9432 28.2309C80.03 27.4093 80.2833 26.8902 80.8951 26.3381C81.6921 25.7863 82.4223 25.8125 83.3731 25.9067Z" fill="white"/>
<path d="M67.9631 25.9067C68.7014 26.2564 69.0539 26.6242 69.4078 27.3514C69.4541 27.7633 69.4754 28.1358 69.4727 28.5471C69.4738 28.6646 69.4749 28.7822 69.476 28.9033C69.4789 29.2904 69.4783 29.6774 69.4774 30.0645C69.4781 30.3346 69.479 30.6047 69.48 30.8747C69.4814 31.4402 69.481 32.0057 69.4794 32.5712C69.4776 33.2947 69.4808 34.0181 69.4855 34.7415C69.4884 35.2991 69.4884 35.8567 69.4875 36.4143C69.4875 36.681 69.4884 36.9477 69.4904 37.2143C69.4928 37.5878 69.4911 37.961 69.4883 38.3345C69.4899 38.4438 69.4915 38.5532 69.493 38.6658C69.4809 39.4561 69.2527 39.9015 68.7657 40.5141C68.156 41.0141 67.5235 41.2104 66.7391 41.1561C65.912 41.0135 65.3215 40.6823 64.8107 40.0044C64.5413 39.4454 64.5233 38.9626 64.5273 38.3552C64.5262 38.2377 64.5251 38.1201 64.524 37.999C64.5211 37.6119 64.5217 37.2249 64.5226 36.8378C64.5219 36.5677 64.521 36.2976 64.52 36.0276C64.5186 35.4621 64.519 34.8966 64.5206 34.3311C64.5224 33.6076 64.5192 32.8842 64.5145 32.1608C64.5116 31.6032 64.5116 31.0456 64.5125 30.488C64.5125 30.2213 64.5116 29.9546 64.5096 29.688C64.5072 29.3145 64.5089 28.9413 64.5117 28.5678C64.5101 28.4585 64.5085 28.3491 64.5069 28.2365C64.5191 27.4457 64.7443 26.9995 65.2343 26.3882C66.0726 25.7371 66.9444 25.7824 67.9631 25.9067Z" fill="white"/>
<path d="M64.5082 48.2253C65.9117 49.5538 66.9062 51.16 67.0381 53.1188C67.0472 53.7403 67.0421 54.3596 67.0301 54.981C67.0277 55.198 67.0255 55.4149 67.0235 55.6319C67.0179 56.1573 67.0092 56.6828 67 57.2082C65.6757 57.2082 64.3514 57.2082 62.987 57.2082C62.8281 56.8242 62.6691 56.4401 62.5054 56.0445C60.9334 52.3996 58.2977 49.9749 54.8004 48.2191C54.8004 48.1131 54.8004 48.0072 54.8004 47.898C57.9654 46.0685 61.5039 45.7518 64.5082 48.2253Z" fill="white"/>
<path d="M71.4946 51.911C73.4063 52.1841 74.7974 53.1209 75.9892 54.6399C77.1128 56.4472 77.1128 56.4472 77.1128 57.2082C75.3647 57.2082 73.6167 57.2082 71.8156 57.2082C71.7097 55.4602 71.6037 53.7121 71.4946 51.911Z" fill="white"/>
<defs>
<linearGradient id="paint0_linear_405_379" x1="134" y1="0" x2="0" y2="134" gradientUnits="userSpaceOnUse">
<stop offset="0.28" stop-color="#FF5757"/>
<stop offset="1" stop-color="#C91B1B"/>
</linearGradient>
</defs>
</svg>
